# xmcd CD database file
# Copyright (C) 1993-1996 Ti Kan
#
# Track frame offsets:
# 150
# 19428
# 41993
# 63860
# 89248
# 115133
# 139885
# 165380
# 185400
# 206793
#
# Disc length: 2994 seconds
# Revision: 0
# Processed by: cddbd v1.4b41PL1 Copyright (c) Steve Scherf et al.
# Submitted via: CDSpectrumPro v3.2.328
#
DISCID=950bb00a
DTITLE=The New Life Community Choir - Wait On Him
DYEAR=1900
DGENRE=
TTITLE0=Wait On Him
TTITLE1=The Annointing
TTITLE2=Pay Day
TTITLE3=Remember Me, Lord
TTITLE4=He Will Never Leave Me Alone
TTITLE5=It Will Be Alright
TTITLE6=Glory and Honor
TTITLE7=The Storm is Passing Over
TTITLE8=Oh How Precious
TTITLE9=It's Time To Praise The Lord
EXTD=
EXTT0=
EXTT1=
EXTT2=
EXTT3=
EXTT4=
EXTT5=
EXTT6=
EXTT7=
EXTT8=
EXTT9=
PLAYORDER=
